<svg width="37" height="37" viewBox="0 0 37 37" fill="none" xmlns="http://www.w3.org/2000/svg">
<path d="M31.1125 24.4339L31.1124 24.434L14.3539 25.7173C13.7574 25.763 13.2423 26.1554 13.0465 26.4945C13.0018 26.5719 12.9859 26.6232 12.9803 26.6527C13.0166 26.6659 13.088 26.682 13.2182 26.682H31.5455H31.5541L31.5541 26.682C32.3741 26.6963 33.1768 26.9147 33.8901 27.3166C33.9816 27.329 34.0714 27.3598 34.1533 27.4095C36.1488 28.6184 37.0069 31.0778 36.1896 33.2688C35.3655 35.478 33.0755 36.7779 30.7562 36.353C28.4369 35.9281 26.7565 33.9008 26.7691 31.5429L27.2691 31.5456L26.7691 31.5418C26.7699 31.4371 26.7303 31.3374 26.6695 31.268C26.6112 31.2014 26.5444 31.1729 26.478 31.1729H21.0739C20.9215 31.1729 20.7317 31.3162 20.6999 31.5726C20.6854 34.2463 18.5135 36.4092 15.8364 36.4092C13.1502 36.4092 10.9727 34.2317 10.9727 31.5456H11.4727L10.9727 31.5439C10.9741 31.1484 10.7376 30.7654 10.3965 30.6023C9.06755 29.9666 8.34269 28.8832 7.95229 27.7417C7.56625 26.6129 7.49802 25.4033 7.48491 24.4573C7.47947 24.0655 7.44964 23.6794 7.38658 23.3017L4.59013 6.55327C4.4396 5.65172 3.65948 4.99106 2.74545 4.99106C1.50532 4.99106 0.5 3.98573 0.5 2.7456C0.5 1.50547 1.50532 0.500147 2.74545 0.500147H6.23335C7.34427 0.487515 8.29766 1.28934 8.47538 2.38637L7.98182 2.46633L8.4759 2.38966C8.62371 3.34216 9.41213 4.06489 10.3739 4.12948L34.3193 5.73763L34.3208 5.73773C35.4992 5.82042 36.412 6.80194 36.4091 7.98319M31.1125 24.4339L35.9091 7.98196M31.1125 24.4339C34.1072 24.2037 36.4172 21.7023 36.4091 18.6989L31.1125 24.4339ZM36.4091 7.98319L35.9091 7.98196M36.4091 7.98319V7.98196H35.9091M36.4091 7.98319L36.4091 18.6976L35.9091 18.6991V7.98196M12.9476 26.6355C12.9478 26.6353 12.9498 26.6366 12.9528 26.6398C12.9489 26.6373 12.9473 26.6357 12.9476 26.6355ZM31.5455 31.1729C31.7513 31.1729 31.9182 31.3397 31.9182 31.5456C31.9182 31.7514 31.7513 31.9183 31.5455 31.9183C31.3396 31.9183 31.1727 31.7514 31.1727 31.5456C31.1727 31.3397 31.3396 31.1729 31.5455 31.1729ZM15.8364 31.1729C16.0422 31.1729 16.2091 31.3397 16.2091 31.5456C16.2091 31.7514 16.0422 31.9183 15.8364 31.9183C15.6305 31.9183 15.4636 31.7514 15.4636 31.5456C15.4636 31.3397 15.6305 31.1729 15.8364 31.1729ZM21.5 9.5C22.1213 9.5 22.625 10.0037 22.625 10.625C22.625 12.6961 24.3039 14.375 26.375 14.375C26.9963 14.375 27.5 14.8787 27.5 15.5C27.5 16.1213 26.9963 16.625 26.375 16.625C24.3039 16.625 22.625 18.3039 22.625 20.375C22.625 20.9963 22.1213 21.5 21.5 21.5C20.8787 21.5 20.375 20.9963 20.375 20.375C20.375 18.3039 18.6961 16.625 16.625 16.625C16.0037 16.625 15.5 16.1213 15.5 15.5C15.5 14.8787 16.0037 14.375 16.625 14.375C18.6961 14.375 20.375 12.6961 20.375 10.625C20.375 10.0037 20.8787 9.5 21.5 9.5Z" fill="#F9FAF5" stroke="#3A684E"/>
<circle cx="31.5" cy="31.5" r="1.5" fill="#3A684E"/>
<circle cx="15.5" cy="31.5" r="1.5" fill="#3A684E"/>
</svg>
