<svg width="80" height="80" viewBox="0 0 80 80" fill="none" xmlns="http://www.w3.org/2000/svg">
<path fill-rule="evenodd" clip-rule="evenodd" d="M10.361 29.0061C10 29.7972 10 30.8138 10 32.847V60.6667C10 63.4951 10 64.9093 10.8787 65.788C11.7574 66.6667 13.1716 66.6667 16 66.6667H64C66.8284 66.6667 68.2426 66.6667 69.1213 65.788C70 64.9093 70 63.4951 70 60.6667V32.847C70 30.8138 70 29.7972 69.639 29.0061C69.2392 28.13 68.5367 27.4275 67.6606 27.0277C66.8695 26.6667 65.8529 26.6667 63.8197 26.6667C62.5159 26.6667 61.864 26.6667 61.2834 26.486C60.6388 26.2853 60.0554 25.9248 59.5877 25.438C59.1664 24.9995 58.8749 24.4164 58.2918 23.2503L54.4389 15.5445C53.901 14.4687 53.632 13.9308 53.1487 13.6321C52.6654 13.3334 52.064 13.3334 50.8612 13.3334H29.1388C27.936 13.3334 27.3346 13.3334 26.8513 13.6321C26.368 13.9308 26.099 14.4687 25.5611 15.5445L21.7082 23.2503C21.1251 24.4164 20.8336 24.9995 20.4123 25.438C19.9446 25.9248 19.3612 26.2853 18.7166 26.486C18.136 26.6667 17.4841 26.6667 16.1803 26.6667C14.1471 26.6667 13.1305 26.6667 12.3394 27.0277C11.4633 27.4275 10.7608 28.13 10.361 29.0061ZM51.3333 43.3334C51.3333 49.5926 46.2592 54.6667 40 54.6667C33.7408 54.6667 28.6667 49.5926 28.6667 43.3334C28.6667 37.0741 33.7408 32 40 32C46.2592 32 51.3333 37.0741 51.3333 43.3334ZM53.3333 43.3334C53.3333 50.6972 47.3638 56.6667 40 56.6667C32.6362 56.6667 26.6667 50.6972 26.6667 43.3334C26.6667 35.9696 32.6362 30 40 30C47.3638 30 53.3333 35.9696 53.3333 43.3334Z" fill="black" fill-opacity="0.6"/>
</svg>
