<svg width="48" height="48" viewBox="0 0 48 48" fill="none" xmlns="http://www.w3.org/2000/svg">
<path fill-rule="evenodd" clip-rule="evenodd" d="M34.4378 29.0444C37.1719 28.8341 39.2808 26.5502 39.2727 23.808V13.0909C39.275 12.1727 38.5654 11.4097 37.6495 11.3455L11.6596 9.6L11.3455 7.57528C11.2072 6.72165 10.4647 6.09797 9.60001 6.10909H6.1091C5.14511 6.10909 4.36365 6.89056 4.36365 7.85455C4.36365 8.81854 5.14511 9.6 6.1091 9.6H8.11637L11.3455 28.9396C11.3455 30.9818 11.3455 34.752 14.976 35.6073C14.8845 35.9489 14.8376 36.3009 14.8364 36.6545C14.8364 39.0645 16.79 41.0182 19.2 41.0182C21.61 41.0182 23.5636 39.0645 23.5636 36.6545C23.5903 36.3643 23.5903 36.0721 23.5636 35.7818H30.72C30.6642 36.0694 30.6349 36.3616 30.6327 36.6545C30.6214 38.77 32.1291 40.5889 34.21 40.9701C36.2908 41.3513 38.3454 40.185 39.0848 38.203C39.8241 36.2209 39.0353 33.994 37.2131 32.9193H37.1084C36.4429 32.5211 35.6845 32.3044 34.9091 32.2909H16.5818C15.6567 32.2909 15.0982 32.2909 14.8364 30.5455L34.4378 29.0444ZM34.9091 35.7818C35.3911 35.7818 35.7818 36.1726 35.7818 36.6545C35.7818 37.1365 35.3911 37.5273 34.9091 37.5273C34.4271 37.5273 34.0364 37.1365 34.0364 36.6545C34.0364 36.1726 34.4271 35.7818 34.9091 35.7818ZM20.0727 36.6545C20.0727 36.1726 19.682 35.7818 19.2 35.7818C18.718 35.7818 18.3273 36.1726 18.3273 36.6545C18.3273 37.1365 18.718 37.5273 19.2 37.5273C19.682 37.5273 20.0727 37.1365 20.0727 36.6545Z" fill="#3A684E"/>
</svg>
