<svg width="48" height="48" viewBox="0 0 48 48" fill="none" xmlns="http://www.w3.org/2000/svg">
<g clip-path="url(#clip0_526_1291)">
<path d="M24 48C20.68 48 17.56 47.3696 14.64 46.1088C11.72 44.848 9.18 43.1384 7.02 40.98C4.86 38.8216 3.1504 36.2816 1.8912 33.36C0.632003 30.4384 0.00160304 27.3184 3.03797e-06 24C-0.00159696 20.6816 0.628803 17.5616 1.8912 14.64C3.1536 11.7184 4.8632 9.1784 7.02 7.02C9.1768 4.8616 11.7168 3.152 14.64 1.8912C17.5632 0.6304 20.6832 0 24 0C27.3168 0 30.4368 0.6304 33.36 1.8912C36.2832 3.152 38.8232 4.8616 40.98 7.02C43.1368 9.1784 44.8472 11.7184 46.1112 14.64C47.3752 17.5616 48.0048 20.6816 48 24C47.9952 27.3184 47.3648 30.4384 46.1088 33.36C44.8528 36.2816 43.1432 38.8216 40.98 40.98C38.8168 43.1384 36.2768 44.8488 33.36 46.1112C30.4432 47.3736 27.3232 48.0032 24 48Z" fill="#3A684E"/>
</g>
<defs>
<clipPath id="clip0_526_1291">
<rect width="48" height="48" fill="white"/>
</clipPath>
</defs>
</svg>
