<svg width="49" height="48" viewBox="0 0 49 48" fill="none" xmlns="http://www.w3.org/2000/svg">
<path fill-rule="evenodd" clip-rule="evenodd" d="M24.5 0C11.2452 0 0.5 10.7452 0.5 24C0.5 37.2548 11.2452 48 24.5 48C37.7548 48 48.5 37.2548 48.5 24C48.5 10.7452 37.7548 0 24.5 0ZM24.8999 11.2C33.061 11.2 39.7 16.549 39.7 23.1237C39.7 25.7551 38.6727 28.1248 36.5278 30.4599H36.5283C33.4233 34.0081 26.4796 38.3298 24.8999 38.9906C23.3647 39.633 23.542 38.6291 23.6123 38.2313C23.6143 38.2198 23.6162 38.2089 23.618 38.1986C23.6555 37.9777 23.8291 36.9409 23.8291 36.9409C23.879 36.5657 23.9307 35.9838 23.7814 35.6122C23.6155 35.2033 22.9595 34.9909 22.4775 34.8878C15.3652 33.9543 10.1 29.018 10.1 23.1237C10.1 16.549 16.7398 11.2 24.8999 11.2Z" fill="black" fill-opacity="0.6"/>
<path d="M21.8144 20H20.7859C20.6282 20 20.5 20.1323 20.5 20.2949V26.9051C20.5 27.068 20.6282 27.2 20.7859 27.2H21.8144C21.9721 27.2 22.1 27.068 22.1 26.9051V20.2949C22.1 20.1323 21.9721 20 21.8144 20Z" fill="black" fill-opacity="0.6"/>
<path d="M28.9993 20H27.9165C27.7505 20 27.6159 20.1323 27.6159 20.2949V24.2221L24.5336 20.1312C24.5265 20.1207 24.5185 20.1108 24.5103 20.1012L24.5082 20.0995C24.5023 20.0928 24.4964 20.087 24.4901 20.0811C24.4884 20.0794 24.4866 20.0779 24.4845 20.0762C24.4795 20.0715 24.4742 20.0672 24.4685 20.0631C24.4662 20.0608 24.4635 20.059 24.4608 20.057C24.4555 20.0535 24.4505 20.0497 24.4452 20.0465C24.4422 20.0445 24.4392 20.0427 24.436 20.0413C24.4307 20.0381 24.4253 20.0349 24.42 20.0323C24.4168 20.0308 24.4138 20.0291 24.4105 20.0279C24.4049 20.0253 24.3993 20.0227 24.3934 20.0206C24.3898 20.0195 24.3869 20.0183 24.3836 20.0172C24.3777 20.0151 24.3718 20.0131 24.3656 20.0116C24.3623 20.0105 24.3588 20.0099 24.3552 20.0087C24.3493 20.0076 24.3437 20.0061 24.338 20.0049C24.3339 20.0044 24.3295 20.0038 24.3253 20.0035C24.32 20.0023 24.3147 20.002 24.3093 20.0015C24.3043 20.0009 24.2993 20.0009 24.2939 20.0006C24.2901 20.0006 24.2871 20 24.2833 20H23.2008C23.0348 20 22.8999 20.1323 22.8999 20.2949V26.9051C22.8999 27.068 23.0348 27.2 23.2008 27.2H24.2833C24.4496 27.2 24.5842 27.068 24.5842 26.9051V22.9791L27.6703 27.0752C27.6916 27.1049 27.718 27.129 27.7467 27.1482C27.7475 27.1488 27.7487 27.1497 27.7496 27.1506C27.7558 27.1543 27.762 27.1581 27.7683 27.1616C27.7712 27.1634 27.7739 27.1645 27.7768 27.166C27.7813 27.1686 27.7863 27.1709 27.791 27.173C27.7961 27.175 27.8005 27.177 27.8058 27.1791C27.8088 27.1802 27.8118 27.1814 27.8147 27.1823C27.8218 27.1849 27.8283 27.1869 27.8351 27.1889C27.8366 27.1889 27.8381 27.1895 27.8396 27.1898C27.8641 27.1962 27.8899 27.2 27.9165 27.2H28.9993C29.1656 27.2 29.2999 27.068 29.2999 26.9051V20.2949C29.2999 20.1323 29.1656 20 28.9993 20Z" fill="black" fill-opacity="0.6"/>
<path d="M19.4075 25.5447H16.5408V20.2955C16.5408 20.1323 16.4097 20 16.2482 20H15.1929C15.0311 20 14.8999 20.1323 14.8999 20.2955V26.9043V26.9048C14.8999 26.9842 14.9313 27.0561 14.9818 27.109C14.9829 27.1104 14.9841 27.1119 14.9858 27.1133C14.9873 27.1148 14.9887 27.116 14.9902 27.1174C15.0429 27.1686 15.1139 27.2 15.1926 27.2H19.4075C19.5693 27.2 19.6999 27.0674 19.6999 26.9043V25.8402C19.6999 25.6771 19.5693 25.5447 19.4075 25.5447Z" fill="black" fill-opacity="0.6"/>
<path d="M34.6077 21.6553C34.7695 21.6553 34.9001 21.5232 34.9001 21.3598V20.2957C34.9001 20.1326 34.7695 20 34.6077 20H30.3931H30.3925C30.3135 20 30.2422 20.032 30.1895 20.0835C30.1883 20.0846 30.1869 20.0855 30.186 20.0867C30.1843 20.0884 30.1829 20.0901 30.1814 20.0919C30.1312 20.1448 30.1001 20.2164 30.1001 20.2955V20.2957V26.9045V26.9048C30.1001 26.9842 30.1315 27.0561 30.182 27.109C30.1831 27.1104 30.1846 27.1122 30.186 27.1133C30.1872 27.1148 30.1889 27.1162 30.1903 27.1174C30.2428 27.1683 30.314 27.2 30.3925 27.2H34.6077C34.7695 27.2 34.9001 27.0674 34.9001 26.9045V25.8402C34.9001 25.6774 34.7695 25.5447 34.6077 25.5447H31.7413V24.4275H34.6077C34.7695 24.4275 34.9001 24.2952 34.9001 24.132V23.068C34.9001 22.9048 34.7695 22.7722 34.6077 22.7722H31.7413V21.6553H34.6077Z" fill="black" fill-opacity="0.6"/>
</svg>
