<svg width="48" height="48" viewBox="0 0 48 48" fill="none" xmlns="http://www.w3.org/2000/svg">
<path d="M41.3847 38.0334L31.9593 28.6254C33.874 26.1861 34.9129 23.1738 34.9091 20.0727C34.9091 12.3608 28.6574 6.10907 20.9454 6.10907C13.2335 6.10907 6.98181 12.3608 6.98181 20.0727C6.98181 27.7846 13.2335 34.0363 20.9454 34.0363C24.0465 34.0402 27.0588 33.0013 29.4982 31.0865L38.9062 40.512C39.2339 40.8424 39.68 41.0283 40.1454 41.0283C40.6108 41.0283 41.057 40.8424 41.3847 40.512C41.7152 40.1842 41.901 39.7381 41.901 39.2727C41.901 38.8073 41.7152 38.3612 41.3847 38.0334Z" fill="#3A684E"/>
</svg>
