<svg width="70" height="70" viewBox="0 0 70 70" fill="none" xmlns="http://www.w3.org/2000/svg">
<path d="M45.7689 62.8932C43.1345 63.9622 40.7741 64.7155 37.9249 64.2048L32.5599 63.5113C31.3223 63.4123 28.86 63.2756 27.6422 63.4689L27.182 63.5235C24.5598 63.7414 21.8586 63.3348 19.8004 61.5591C18.7548 60.657 18.393 59.3808 18.3008 58.0519L15.2153 57.3203C14.4921 57.1395 13.4112 57.0728 13.2569 56.1515L13.2481 56.0945C13.1571 55.5275 13.5248 54.9522 13.7215 54.442L20.0889 40.3346L25.2341 30.5989C25.6207 29.943 26.1989 29.4804 26.1032 28.7975L25.4158 24.1395L24.5239 19.5386C24.0772 17.4126 23.5238 15.286 22.6547 13.2881L21.9596 11.8083C21.3049 10.4838 21.0907 10.3193 22.3425 9.22236C23.856 7.89612 27.3661 5.80029 29.4799 5.58756C29.837 5.4999 30.2268 5.81644 30.3883 6.10049L30.4174 6.15303C30.7327 6.70807 30.4916 8.01931 30.6036 8.70099C30.7025 9.30268 30.9268 9.80246 31.1888 10.3489L31.2073 10.3881C31.7171 11.4347 32.7711 12.1323 33.8416 12.4954C36.1707 13.2854 38.4394 11.6516 39.1819 9.47659C39.4199 8.7796 39.4389 8.08322 39.4384 7.35492C39.4372 5.51921 39.9064 5.34084 41.5283 5.82044C43.832 6.50164 45.9534 7.64531 47.7518 9.23733C48.2109 9.6438 48.85 10.2568 48.4888 10.9301C47.7082 12.3847 47.1771 14.0025 46.7333 15.5878L46.141 17.8168C45.8778 18.7056 44.0255 28.6167 44.1167 28.7795C44.1617 28.8598 44.3721 28.9866 44.4484 29.0708C45.3947 30.1144 45.9709 31.3065 46.6516 32.527L51.698 43.494L56.6385 55.6452C57.1408 56.9344 55.6225 57.3171 54.7648 57.688C53.6359 58.1761 52.4721 58.6878 51.462 59.3945L49.4761 60.8673C48.3197 61.6634 47.0466 62.3159 45.7689 62.8932ZM41.4183 7.80862C41.3901 8.07317 41.4032 8.34415 41.3628 8.60542C40.7695 12.4463 37.3895 15.5743 33.4106 14.4055C30.2888 13.4885 28.8607 10.9703 28.5669 7.8735C26.9055 8.38462 24.785 9.555 23.5269 10.7207C23.967 11.4613 24.3654 12.3307 24.6356 13.1428L25.9898 17.413L27.1797 23.3135C27.2252 23.7817 27.3365 24.2547 27.4104 24.7201L27.5627 25.6607C27.6847 26.5084 27.7625 27.9251 27.9622 28.6053L42.2355 28.594C42.3628 27.1612 42.6754 25.7276 42.9187 24.3091C43.6372 20.1202 44.3782 15.8662 45.9559 11.8988C46.0185 11.7413 46.4609 10.7492 46.4488 10.6769C45.0834 9.34322 43.172 8.47882 41.4183 7.80862ZM27.3824 30.5996L15.3974 55.3826L17.2403 55.8234C17.6326 55.9171 18.034 56.0431 18.437 56.0718L18.4407 56.0304C18.4687 55.7369 18.5478 55.456 18.6028 55.1673L19.2264 52.5861C20.0234 49.8561 21.1547 47.2327 22.482 44.7201C24.3414 41.1999 26.4751 37.8334 27.7631 34.0455C27.9213 33.5804 28.0294 33.0699 28.2303 32.6231C28.6308 31.7326 29.6091 31.8675 29.9971 32.7815C30.491 33.9451 26.7281 40.9937 26.1109 42.1095L23.9516 45.9888C22.4876 48.8264 21.3253 51.8066 20.5818 54.9131L20.329 56.1004C19.4337 60.4845 22.2958 61.5623 26.2433 61.5467C26.7687 61.5446 27.4389 61.6105 27.9395 61.4618C28.1682 61.394 28.4616 61.4147 28.7002 61.4134L31.6417 61.4219C32.544 61.4666 33.7471 61.5808 34.624 61.7071L38.6911 62.339C40.1378 62.5073 41.6785 62.2799 43.0579 61.819C44.8835 61.3111 46.8155 60.3494 48.3742 59.2555C49.2866 58.6152 50.1402 57.8908 51.0791 57.288C50.1292 55.5064 49.338 53.6004 48.5339 51.7487L40.885 34.4451C40.7004 34.0268 40.2361 33.3255 40.3918 32.853L40.447 32.7127C40.6467 32.2131 41.1816 31.8955 41.6992 32.1345C42.1532 32.3442 42.5917 33.4044 42.7801 33.9173L52.6542 56.2084C52.6899 56.289 52.7411 56.3637 52.7877 56.4383L54.5635 55.6443C54.3261 54.8847 54.0179 54.1432 53.7327 53.4002L51.529 47.989L44.7617 33.0576C44.3678 32.2918 43.9857 31.5712 43.4373 30.9045C43.0937 30.4865 43.1065 30.6004 42.5519 30.6L27.3824 30.5996Z" fill="#3A684E"/>
<path d="M41.4183 7.80862C41.3901 8.07317 41.4032 8.34415 41.3628 8.60542C40.7695 12.4463 37.3895 15.5743 33.4106 14.4055C30.2888 13.4885 28.8607 10.9703 28.5669 7.8735C26.9055 8.38462 24.785 9.555 23.5269 10.7207C23.967 11.4613 24.3654 12.3307 24.6356 13.1428L25.9898 17.413L27.1797 23.3135C27.2252 23.7817 27.3365 24.2547 27.4104 24.7201L27.5627 25.6607C27.6847 26.5084 27.7625 27.9251 27.9622 28.6053L42.2355 28.594C42.3628 27.1612 42.6754 25.7276 42.9187 24.3091C43.6372 20.1202 44.3782 15.8662 45.9559 11.8988C46.0185 11.7413 46.4609 10.7492 46.4488 10.6769C45.0834 9.34322 43.172 8.47882 41.4183 7.80862Z" fill="#FFDD50"/>
<path d="M32.9663 59.9517C32.8231 59.9287 32.6604 59.9093 32.5322 59.8375C31.5277 59.2748 30.8901 55.1698 30.8018 53.8448C30.5779 50.4871 31.2292 47.7043 31.3302 44.4821C31.3616 43.4804 31.2338 42.4864 31.2267 41.4876C31.2086 38.9668 31.362 36.4528 31.7178 33.9575C31.8373 33.1194 31.8193 32.2455 32.8037 32.0349L32.9321 32.0483C34.3655 32.2828 33.6115 34.2129 33.5047 35.1285L33.361 36.4099C33.2647 37.5304 33.1977 38.4433 33.1895 39.5927L33.2057 45.3125C33.1802 46.0828 33.0423 46.8566 32.9648 47.6236L32.688 50.8658L32.682 53.2861C32.6929 53.7585 32.7401 54.3237 32.8159 54.79L33.1695 56.463C33.2046 56.5981 33.2121 56.7429 33.2638 56.8721L33.5168 57.7104C33.8108 58.5973 34.4676 59.6604 32.9663 59.9517Z" fill="#3A684E"/>
<path d="M44.9152 58.9881C44.4529 59.0223 44.2759 58.8924 43.9651 58.585L43.3166 57.9296C39.6413 54.1164 38.2206 49.0187 37.3256 43.9214L36.4819 36.8949C36.4519 36.5708 36.4025 36.2487 36.3873 35.9231L36.3499 33.3247C36.3263 32.6505 36.4541 32.2781 37.1474 32.0631C38.2328 31.9747 38.2767 32.7561 38.278 33.5057L38.2851 35.1544C38.2949 35.4869 38.3566 35.815 38.376 36.1456L38.4196 37.3704C38.4329 37.5737 38.4792 37.7738 38.4999 37.9768L38.5543 38.8721C38.5923 39.3342 38.6517 39.8448 38.734 40.2984L39.6257 45.7159C39.8664 47.2345 40.7337 50.305 41.464 51.6886L42.2008 53.1824C42.8851 54.4627 43.8168 55.659 44.8044 56.7178C45.2729 57.22 46.0456 57.6841 45.6165 58.4746C45.4625 58.7583 45.2131 58.8995 44.9152 58.9881Z" fill="#3A684E"/>
</svg>
