<svg width="70" height="70" viewBox="0 0 70 70" fill="none" xmlns="http://www.w3.org/2000/svg">
<path d="M46.2531 57.1689C46.0178 57.4339 45.7512 57.5868 45.414 57.6933L44.4451 57.9527C41.3214 58.7499 38.1522 59.0347 34.9352 59.0356L32.8948 59.028L29.7507 58.7436C28.5581 58.595 24 57.9123 23.7927 56.7523L23.7886 56.7041C20.0962 53.9641 14.5765 54.0096 10.2934 52.791C9.47178 52.5572 9.18973 51.7786 9.43664 51.0177L9.46433 50.9287C9.46857 50.8712 9.4672 50.8826 9.42488 50.866L7.70653 50.1342C6.58373 49.5912 5.5401 48.8717 4.60655 48.0487C3.28692 46.8854 2.65759 46.5698 3.7177 45.1341L10.358 35.8573C14.7361 29.6814 17.3008 26.3084 19.2942 18.7496L19.9046 15.979C20.0743 15.0743 20.2085 14.1721 20.3491 13.2622L20.5899 9.95379C20.6038 9.01618 20.3018 8.14241 21.3686 7.69793L48.0714 7.68201C48.6066 7.68372 49.0651 7.74312 49.3201 8.31262L49.3384 8.35589C49.5496 8.8394 49.4046 10.7102 49.4555 11.38L49.8336 14.4238C49.9886 15.3415 50.1736 16.8483 50.4714 17.7182L51.2412 20.6445C51.2567 20.708 51.2696 20.7653 51.2914 20.8272L51.3766 21.1059C51.5062 21.6152 51.7015 22.1331 51.881 22.6269L53.0646 25.6516C53.7549 27.3714 54.7623 29.0717 55.7827 30.6079L65.4179 44.7685C65.6782 45.161 65.9627 45.5444 66.1955 45.9535L66.2178 45.9934C66.4938 46.4706 66.1012 47.0066 65.8363 47.3962L65.1869 48.2776C63.986 49.7748 62.4296 50.5307 60.5178 50.7393C60.4751 51.2854 60.8345 51.8462 60.4686 52.3532C60.0777 52.8947 59.4313 52.8972 58.8363 53.0329L53.6572 54.0002C52.7634 54.1605 51.851 54.4601 50.9916 54.7504L47.3067 56.1059C45.6161 56.7586 46.73 56.4831 46.2531 57.1689ZM22.6005 9.81461L22.4177 13.1522L24.5581 13.1479L24.6948 13.1683C24.7176 13.07 24.6694 12.9771 24.64 12.8814L24.4026 12.1338C24.1933 11.3712 24.1241 10.6021 24.129 9.81325L22.6005 9.81461ZM26.1896 9.822C26.1805 10.6004 26.1634 11.2759 26.4423 12.0092L26.5529 12.3196C26.6182 12.4656 26.7631 13.0721 26.8765 13.146L41.5107 13.1469C42.0478 13.1467 42.641 13.1958 43.1719 13.1299L43.3397 12.6083C43.7433 11.5354 43.839 10.9712 43.8054 9.81714L26.1896 9.822ZM45.8825 9.81461C45.8584 10.8396 45.7584 11.8212 45.445 12.8023C45.4121 12.9053 45.3522 13.0347 45.3445 13.1403L47.0707 13.1465L47.6052 13.159C47.5815 12.4291 47.4755 11.7181 47.469 10.9911L47.4482 9.8142L45.8825 9.81461ZM22.0565 15.2854C21.6064 19.6858 19.5229 25.376 17.361 29.1894C15.4262 32.6023 12.9821 35.7016 10.6988 38.8794L5.52196 46.1078C6.91343 47.353 8.23878 48.264 10.0385 48.8899C10.1787 48.2718 10.3791 47.6877 10.5797 47.0874L11.4192 44.672C12.3024 42.2301 13.3612 39.2262 13.4973 36.6026C13.5133 36.2953 13.4252 35.776 13.6133 35.5282C13.9175 35.1272 14.4364 34.8069 14.9474 35.056L14.9854 35.0739C15.2382 35.1985 15.43 35.4202 15.5238 35.6836L15.5392 35.7258C15.6118 35.9401 15.5888 36.2165 15.5704 36.4379L15.4625 37.3919C15.0784 40.0864 14.32 42.5114 13.4442 45.0826L12.9726 46.4193C12.9171 46.5732 12.7737 46.8631 12.7815 47.0181L19.8071 48.4701L24.1698 49.8249L24.3846 47.5482C24.575 46.0329 25.6251 39.0862 26.5127 38.3109C27.1031 37.7952 27.8582 38.138 28.1026 38.7939L28.1202 38.8386C28.3193 39.3746 27.9396 40.0172 27.7874 40.5189L27.2249 42.6876C27.0651 43.3654 26.988 44.0724 26.8717 44.7588L26.2053 49.6698C26.0722 50.8692 25.7445 50.8047 26.7182 51.0473L29.6733 51.6719C30.5241 51.8089 31.4173 51.9182 32.2753 51.9671L37.156 51.9696C39.0269 51.8717 41.4565 51.5538 43.2181 51.0786C43.4771 51.0087 43.7342 50.9091 43.9935 50.8459L43.876 49.5898L41.6021 37.5406C41.2116 36.0092 43.1561 35.3171 43.6007 37.2561L44.5809 41.0227L45.4276 45.7013C45.505 45.998 45.5086 46.3427 45.5511 46.6481L45.8802 49.3243C45.9114 49.5929 45.8953 49.8642 45.9438 50.13L50.4854 48.4768C51.6672 48.0376 52.8892 47.6431 54.1417 47.4685C55.2261 47.3174 56.2747 47.4146 57.2229 47.2749L54.9559 40.5558C54.8448 40.2036 54.712 39.8155 54.6601 39.4489C54.4732 38.1284 56.1796 37.7383 56.6378 39.1528L59.7558 48.4571C59.7807 48.5577 59.8342 48.6557 59.8786 48.7492C61.2957 48.6758 62.4302 48.2277 63.3694 47.1789L64.0522 46.3407L55.9522 34.3506C55.1532 33.216 54.3175 32.1031 53.5916 30.9193C50.8169 26.3945 48.777 20.5803 47.9748 15.2848L22.0565 15.2854ZM12.1577 49.0373L11.5816 50.9887C15.1747 51.8228 20.4804 52.1656 23.56 54.2257C23.6682 54.2771 23.7758 54.3244 23.874 54.3934L23.9031 53.0076C23.9112 52.6913 23.9884 52.2814 23.9446 51.9786C21.3283 50.9308 18.7069 50.2241 15.9377 49.7016L13.1774 49.2403C12.8398 49.1789 12.4835 49.1465 12.1577 49.0373ZM57.3013 49.3512C53.5516 49.3438 52.5211 49.9692 49.0796 51.1906L46.9257 51.9472C46.682 52.0386 46.4086 52.1149 46.1799 52.237L46.2869 53.3545C46.3045 53.6624 46.2705 53.97 46.3497 54.2692L47.0772 54.0106C48.6506 53.3282 50.5181 52.6582 52.1924 52.2275L56.9945 51.3146C57.2281 51.2672 57.4609 51.2488 57.6916 51.1846L58.4704 51.0131L57.9274 49.3308C57.8081 49.3341 57.3846 49.3047 57.3013 49.3512ZM44.1629 52.9272C40.6558 53.7808 37.0325 54.2461 33.4171 54.0996L32.2494 54.0038C29.8671 53.8424 28.2666 53.5014 25.9565 52.9713L25.87 55.8325C25.9026 55.8636 25.9093 55.8781 25.9543 55.8892C27.7143 56.385 30.0797 56.785 31.9347 56.8857L34.9579 56.9141C36.3559 56.9131 37.5065 56.9174 38.8937 56.7895L39.8411 56.7162L43.5707 56.0612C43.8159 56.0026 44.1478 55.9318 44.3649 55.8117L44.1629 52.9272Z" fill="#3A684E"/>
<path d="M22.0565 15.2854C21.6064 19.6858 19.5229 25.376 17.361 29.1894C15.4262 32.6023 12.9821 35.7016 10.6988 38.8794L5.52196 46.1078C6.91343 47.353 8.23878 48.264 10.0385 48.8899C10.1787 48.2718 10.3791 47.6877 10.5797 47.0874L11.4192 44.672C12.3024 42.2301 13.3612 39.2262 13.4973 36.6026C13.5133 36.2953 13.4252 35.776 13.6133 35.5282C13.9175 35.1272 14.4364 34.8069 14.9474 35.056L14.9854 35.0739C15.2382 35.1985 15.43 35.4202 15.5238 35.6836L15.5392 35.7258C15.6118 35.9401 15.5888 36.2165 15.5704 36.4379L15.4625 37.3919C15.0784 40.0864 14.32 42.5114 13.4442 45.0826L12.9726 46.4193C12.9171 46.5732 12.7737 46.8631 12.7815 47.0181L19.8071 48.4701L24.1698 49.8249L24.3846 47.5482C24.575 46.0329 25.6251 39.0862 26.5127 38.3109C27.1031 37.7952 27.8582 38.138 28.1026 38.7939L28.1202 38.8386C28.3193 39.3746 27.9396 40.0172 27.7874 40.5189L27.2249 42.6876C27.0651 43.3654 26.988 44.0724 26.8717 44.7588L26.2053 49.6698C26.0722 50.8692 25.7445 50.8047 26.7182 51.0473L29.6733 51.6719C30.5241 51.8089 31.4173 51.9182 32.2753 51.9671L37.156 51.9696C39.0269 51.8717 41.4565 51.5538 43.2181 51.0786C43.4771 51.0087 43.7342 50.9091 43.9935 50.8459L43.876 49.5898L41.6021 37.5406C41.2116 36.0092 43.1561 35.3171 43.6007 37.2561L44.5809 41.0227L45.4276 45.7013C45.505 45.998 45.5086 46.3427 45.5511 46.6481L45.8802 49.3243C45.9114 49.5929 45.8953 49.8642 45.9438 50.13L50.4854 48.4768C51.6672 48.0376 52.8892 47.6431 54.1417 47.4685C55.2261 47.3174 56.2747 47.4146 57.2229 47.2749L54.9559 40.5558C54.8448 40.2036 54.712 39.8155 54.6601 39.4489C54.4732 38.1284 56.1796 37.7383 56.6378 39.1528L59.7558 48.4571C59.7807 48.5577 59.8342 48.6557 59.8786 48.7492C61.2957 48.6758 62.4302 48.2277 63.3694 47.1789L64.0522 46.3407L55.9522 34.3506C55.1532 33.216 54.3175 32.1031 53.5916 30.9193C50.8169 26.3945 48.777 20.5803 47.9748 15.2848L22.0565 15.2854Z" fill="#FFDD50"/>
</svg>
