<svg width="70" height="70" viewBox="0 0 70 70" fill="none" xmlns="http://www.w3.org/2000/svg">
<path d="M50.697 58.3079L40.0419 59.5778L37.1633 59.702L32.1557 59.6952L29.8221 59.5737L22.3539 58.7601L18.3371 58.1193C18.1505 58.0964 17.936 58.093 17.7612 58.0206L17.5948 57.9435C17.3668 57.8127 17.1776 57.5255 17.1175 57.2737L17.1089 57.2346C17.0142 56.8194 17.1999 56.4325 17.3124 56.0403L19.0476 49.8254C20.0049 46.5289 20.6219 44.2248 20.4399 40.6978L19.726 40.8913C17.9317 41.3178 15.7813 41.6101 13.9237 41.3892C9.3924 40.8503 5.44351 37.4786 2.91815 33.8551C2.29352 32.9589 1.69339 32.1236 3.12135 31.5587L4.02698 31.1996C8.86043 29.1055 10.5538 25.0016 12.8693 20.5836L15.381 16.2317C15.6415 15.8143 15.8507 15.3521 16.1357 14.9554C16.9198 13.8636 18.5606 13.2575 19.7391 12.7163L24.7977 10.5268C25.155 10.3609 25.4839 10.1834 25.8803 10.1257C26.9812 10.1911 26.8495 11.3239 26.9152 12.1391C27.1123 14.5852 28.9543 16.7699 31.2267 17.5986C32.0344 17.8932 32.7919 17.9336 33.641 17.9351L36.7288 17.9345C39.8254 17.9281 42.5461 15.5589 43.0562 12.5046C43.1465 11.9635 43.0728 11.3839 43.2001 10.8527C43.5061 9.57578 44.889 10.3403 45.5714 10.6194L48.057 11.6195C49.8866 12.3344 52.5235 13.2583 53.7745 14.8252C54.0927 15.2238 54.2837 15.7235 54.5578 16.1562C55.0787 16.9785 55.6194 17.7816 56.087 18.637L58.6857 23.5738C60.6734 27.0878 62.411 29.8743 66.326 31.3101C67.1616 31.6166 68.1719 32.0731 67.537 33.1721C66.6026 34.7892 64.7854 36.6036 63.4094 37.8205C60.3669 40.5112 57.0007 41.8474 52.9303 41.3937C51.7852 41.266 50.6751 40.9813 49.5694 40.6688L49.5514 40.6917C49.4587 42.088 49.5179 43.9156 49.7661 45.3059L50.1008 46.8237C50.2129 47.2997 50.3112 47.8067 50.4703 48.2688L52.5513 55.4572C53.2745 57.7871 53.1961 57.8895 50.697 58.3079ZM45.038 12.5795C44.5176 16.4864 41.2607 19.6655 37.3121 19.9637C36.2372 20.0449 33.4903 20.0834 32.4646 19.9464L32.3195 19.9185C28.5092 19.1458 25.5209 16.6752 24.9587 12.6366L17.9504 15.9L20.0334 22.8156L20.1464 23.4642C20.2305 23.8368 20.2008 24.2335 20.2894 24.6014L22.4137 39.743C22.4726 40.0826 22.4412 40.4876 22.4474 40.8347L22.4281 43.7994C22.4149 44.0489 22.3658 44.295 22.3508 44.5441L21.9356 47.0486C22.3359 47.1855 22.7456 47.2679 23.1571 47.3603L29.9744 48.4015C31.6155 48.5372 33.2562 48.5589 34.9018 48.5592L37.9626 48.5496C38.2604 48.5378 38.5519 48.4788 38.8487 48.4602L40.1786 48.3911C42.0305 48.2267 43.877 47.986 45.6986 47.6142L48.1341 47.118C47.4026 44.2211 47.3843 41.0692 47.7621 38.111L48.807 32.4201L49.6371 26.2678L49.6844 25.0698C49.8279 22.98 50.3798 21.3856 51.0197 19.4057C51.408 18.2044 51.7374 16.9665 52.0037 15.7321C49.84 14.3253 47.4159 13.5308 45.038 12.5795ZM16.5075 18.1672L16.481 18.225C16.2147 18.7969 15.8442 19.3699 15.5309 19.9192L13.5966 23.6035C11.1842 28.2354 9.53821 30.8721 4.80272 33.0359L6.05424 34.5073C7.24052 35.8222 8.60189 37.0498 10.1027 37.9954C12.5887 39.514 15.7473 39.7523 18.5549 39.0871C19.116 38.9541 19.7738 38.8376 20.3029 38.6172L18.4959 27.5114C18.3791 26.1345 18.3602 24.735 18.1001 23.3745C17.896 22.3074 16.997 19.196 16.5276 18.1807L16.5075 18.1672ZM53.46 18.1672C53.0678 19.8769 52.2849 21.488 51.9424 23.2019C51.6557 24.6367 51.6486 26.1177 51.5011 27.5712L50.6616 33.4245L49.8381 37.9543C49.8106 38.1458 49.6987 38.4548 49.7552 38.6399C52.9256 39.6251 56.27 39.9285 59.2861 38.34L59.9306 37.967C61.3813 37.0661 62.76 35.8155 63.9088 34.5561L65.1842 33.0462C59.7272 30.5824 58.0246 26.7285 55.3846 21.5648L54.1465 19.2654C53.9392 18.9017 53.6915 18.541 53.5006 18.1727L53.46 18.1672ZM21.3538 48.9967L20.7545 51.3583C22.3548 51.7769 23.9996 52.039 25.6346 52.2735L29.9071 52.7746C30.4486 52.8159 30.9941 52.7834 31.5354 52.8125L37.1537 52.9102L39.8124 52.7661L45.2421 52.1437L48.4445 51.5697C48.5449 51.5496 48.6799 51.5426 48.7725 51.503L49.3023 51.3857L48.6542 49.058C46.4243 49.5474 44.2036 49.9929 41.9347 50.265L39.4195 50.469C39.0468 50.4958 38.6782 50.5508 38.304 50.5637L31.5824 50.5591L28.8651 50.3113C26.3407 50.0432 23.8063 49.6722 21.3538 48.9967ZM20.161 53.3039L19.3302 56.2201C19.905 56.3518 20.4957 56.4245 21.0776 56.5168L28.1596 57.4234L32.4313 57.6721L37.6058 57.6736L41.7304 57.4084L50.1372 56.3383L50.7302 56.2537L49.8395 53.3092L45.2236 54.2138L40.3239 54.7915L37.5081 54.9309L32.0753 54.9243L26.9783 54.503L23.3109 53.9701C22.9124 53.8976 20.3153 53.2932 20.161 53.3039Z" fill="#3A684E"/>
<path d="M45.038 12.5795C44.5176 16.4864 41.2607 19.6655 37.3121 19.9637C36.2372 20.0449 33.4903 20.0834 32.4646 19.9464L32.3195 19.9185C28.5092 19.1458 25.5209 16.6752 24.9587 12.6366L17.9504 15.9L20.0334 22.8156L20.1464 23.4642C20.2305 23.8368 20.2008 24.2335 20.2894 24.6014L22.4137 39.743C22.4726 40.0826 22.4412 40.4876 22.4474 40.8347L22.4281 43.7994C22.4149 44.0489 22.3658 44.295 22.3508 44.5441L21.9356 47.0486C22.3359 47.1855 22.7456 47.2679 23.1571 47.3603L29.9744 48.4015C31.6155 48.5372 33.2562 48.5589 34.9018 48.5592L37.9626 48.5496C38.2604 48.5378 38.5519 48.4788 38.8487 48.4602L40.1786 48.3911C42.0305 48.2267 43.877 47.986 45.6986 47.6142L48.1341 47.118C47.4026 44.2211 47.3843 41.0692 47.7621 38.111L48.807 32.4201L49.6371 26.2678L49.6844 25.0698C49.8279 22.98 50.3798 21.3856 51.0197 19.4057C51.408 18.2044 51.7374 16.9665 52.0037 15.7321C49.84 14.3253 47.4159 13.5308 45.038 12.5795Z" fill="#FFDD50"/>
<path d="M20.161 53.3039L19.3302 56.2201C19.905 56.3518 20.4957 56.4245 21.0776 56.5168L28.1596 57.4234L32.4313 57.6721L37.6058 57.6736L41.7304 57.4084L50.1372 56.3383L50.7302 56.2537L49.8395 53.3092L45.2236 54.2138L40.3239 54.7915L37.5081 54.9309L32.0753 54.9243L26.9783 54.503L23.3109 53.9701C22.9124 53.8976 20.3153 53.2932 20.161 53.3039Z" fill="#FFDD50"/>
</svg>
