<svg width="1345" height="1697" viewBox="0 0 1345 1697" fill="none" xmlns="http://www.w3.org/2000/svg">
<path d="M2.38996 300.637L1.59432 301.249L2.21015 302.042L108.65 439.123L109.264 439.915L110.055 439.299L268.078 316.113C399.617 353.134 519.729 406.44 606.997 450.517C650.682 472.582 686.132 492.332 710.659 506.565C722.922 513.681 732.454 519.418 738.919 523.374C742.151 525.353 744.617 526.886 746.274 527.924C747.102 528.444 747.729 528.839 748.148 529.104C748.357 529.237 748.514 529.337 748.619 529.404L748.737 529.48L748.767 529.498L748.774 529.503C748.776 529.504 748.776 529.504 749.316 528.662L748.776 529.504L749.641 530.058L750.172 529.18L797.203 451.377L797.611 450.702L797.049 450.148L796.847 450.352C797.049 450.147 797.048 450.146 797.047 450.145L797.039 450.138L797.01 450.109L796.895 449.997C796.794 449.897 796.642 449.749 796.44 449.553C796.037 449.162 795.434 448.58 794.633 447.815C793.031 446.287 790.639 444.029 787.474 441.108C781.145 435.268 771.722 426.779 759.346 416.177C734.592 394.973 698.019 365.316 650.729 331.49C556.151 263.839 418.696 179.508 247.184 112.782L246.658 112.578L246.211 112.922L2.38996 300.637ZM546.338 186.342C597.632 186.342 638.925 145.143 638.925 93.955C638.925 42.7672 597.632 1.56763 546.338 1.56763C495.043 1.56763 453.75 42.7672 453.75 93.955C453.75 145.143 495.043 186.342 546.338 186.342ZM546.338 134.944C523.372 134.944 505.257 116.865 505.257 93.955C505.257 71.0451 523.372 52.9662 546.338 52.9662C569.303 52.9662 587.418 71.0451 587.418 93.955C587.418 116.865 569.303 134.944 546.338 134.944Z" stroke="#FFDD50" stroke-width="2"/>
<path d="M1203 796.28C1202.5 897.352 1200.29 996.373 1198.2 1070.21C1197.16 1107.25 1196.14 1137.95 1195.39 1159.39C1195.01 1170.12 1194.7 1178.52 1194.48 1184.25C1194.37 1187.11 1194.28 1189.3 1194.23 1190.78L1194.2 1191.34C1194.19 1191.81 1194.17 1192.18 1194.16 1192.45L1194.14 1192.87L1194.14 1192.98L1194.14 1193.01L1194.14 1193.01C1194.14 1193.01 1194.14 1193.01 1194.2 1193.02L1194.14 1193.02L1194.1 1194.06L1195.14 1194.06L1195.14 1193.06C1195.14 1194.06 1195.15 1194.06 1195.15 1194.06L1195.16 1194.06L1195.18 1194.06C1195.21 1194.05 1195.24 1194.05 1195.28 1194.05C1195.36 1194.05 1195.47 1194.05 1195.62 1194.04C1195.92 1194.02 1196.35 1193.99 1196.91 1193.92C1198.03 1193.79 1199.66 1193.54 1201.72 1193.04C1205.85 1192.05 1211.71 1190.1 1218.72 1186.24C1232.76 1178.52 1251.36 1163.19 1269.92 1132.79C1307.03 1072.02 1344 950.968 1344 709.735V708.762L1343.03 708.735C1247.88 706.141 1166.15 705.05 1099.14 704.156C1089.45 704.027 1080.07 703.902 1071 703.777C1072.94 668.244 1073.9 629.797 1073.9 589.402V588.402H1072.9H934.899H933.899V589.402C933.899 629.782 932.931 667.236 931.955 701.773H861.953H860.953V702.773V804.211V805.211H861.953V804.211C861.953 804.642 861.953 804.887 861.953 805.027C861.953 805.211 861.953 805.211 861.953 805.211H861.954H861.957H861.969L862.017 805.211L862.209 805.211C862.378 805.211 862.633 805.21 862.972 805.209C863.651 805.207 864.669 805.203 866.025 805.196C868.738 805.18 872.806 805.149 878.229 805.087C888.891 804.965 904.792 804.722 925.93 804.242C914.576 950.25 892.962 1047.05 874.183 1107.36C864.769 1137.59 856.068 1158.64 849.727 1172.13C846.557 1178.88 843.977 1183.73 842.193 1186.89C841.301 1188.48 840.608 1189.63 840.14 1190.39C839.906 1190.77 839.728 1191.05 839.61 1191.24C839.551 1191.33 839.506 1191.4 839.477 1191.44L839.445 1191.49L839.438 1191.5L839.436 1191.5L838.391 1193.06H840.266V1192.06C840.266 1193.06 840.268 1193.06 840.271 1193.06L840.279 1193.06L840.307 1193.06C840.331 1193.06 840.366 1193.06 840.411 1193.06C840.501 1193.06 840.633 1193.06 840.804 1193.05C841.148 1193.04 841.654 1193.01 842.311 1192.96C843.627 1192.86 845.551 1192.67 848.01 1192.28C852.928 1191.51 859.986 1189.96 868.591 1186.86C885.804 1180.68 909.188 1168.33 934.002 1143.67C983.555 1094.42 1038.73 996.188 1061.97 800.218C1079.32 799.806 1097.47 799.231 1116.51 798.628C1143.49 797.773 1172.25 796.863 1203 796.28Z" stroke="#FFDD50" stroke-width="2"/>
<path d="M585.086 855.909L584.342 855.244L583.675 855.986L545.929 897.998C541.24 888.405 533.281 878.872 522.911 869.394L522.169 868.716L521.494 869.462L480.039 915.288L479.37 916.027L480.107 916.698C500.782 935.519 514.026 951.639 522.096 963.037C526.13 968.736 528.872 973.255 530.601 976.342C531.466 977.886 532.077 979.071 532.471 979.867C532.668 980.265 532.81 980.565 532.903 980.764C532.949 980.864 532.983 980.938 533.005 980.986L533.028 981.04L533.034 981.052L533.035 981.054L533.035 981.054L533.658 982.488L534.698 981.321L533.952 980.655C534.698 981.321 534.698 981.32 534.699 981.32L534.701 981.318L534.706 981.312L534.723 981.292C534.739 981.275 534.761 981.249 534.789 981.216C534.846 981.151 534.93 981.054 535.037 980.927C535.251 980.673 535.56 980.298 535.948 979.809C536.723 978.831 537.811 977.394 539.072 975.547C541.593 971.855 544.811 966.517 547.602 959.929C552.845 947.554 556.602 930.716 551.352 912.082C568.189 927.995 579.039 941.595 585.735 951.344C589.263 956.48 591.638 960.549 593.128 963.325C593.872 964.713 594.396 965.779 594.732 966.493C594.9 966.85 595.021 967.12 595.099 967.298C595.12 967.347 595.139 967.389 595.154 967.424C595.166 967.453 595.176 967.477 595.185 967.496L595.204 967.543L595.209 967.553L595.209 967.555L595.209 967.555L595.816 969.04L596.882 967.841L596.135 967.177C596.882 967.841 596.883 967.841 596.883 967.84L596.886 967.837L596.894 967.828L596.924 967.794C596.949 967.765 596.986 967.722 597.034 967.667C597.13 967.555 597.27 967.39 597.448 967.174C597.804 966.743 598.315 966.107 598.942 965.28C600.195 963.626 601.912 961.207 603.777 958.134C607.505 951.992 611.837 943.215 614.233 932.692C616.63 922.163 617.09 909.88 613.059 896.753C609.028 883.625 600.523 869.716 585.086 855.909ZM236.079 1510.89L236.047 1510.84L236.597 1512.7L236.553 1511.7C236.597 1512.7 236.599 1512.7 236.602 1512.7L236.615 1512.7L236.663 1512.7C236.705 1512.7 236.767 1512.69 236.848 1512.69C236.924 1512.68 237.017 1512.68 237.126 1512.67C237.252 1512.66 237.4 1512.66 237.57 1512.64C238.204 1512.6 239.141 1512.53 240.361 1512.41C242.801 1512.18 246.373 1511.78 250.915 1511.09C259.998 1509.71 272.963 1507.18 288.516 1502.57C319.621 1493.34 361.087 1475.79 402.551 1442.51C485.518 1375.9 568.296 1246.42 568.296 995.032V994.054L567.318 994.032C423.573 990.887 327.817 989.315 267.996 988.528C238.085 988.135 217.159 987.939 203.709 987.84C196.984 987.791 192.128 987.767 188.953 987.754C187.366 987.748 186.199 987.745 185.428 987.744C185.043 987.743 184.757 987.742 184.567 987.742L184.354 987.742L184.301 987.742H184.288H184.284C184.284 987.742 184.283 987.742 184.283 988.742V987.742H183.283V988.742V1081.29V1082.32L184.31 1082.29L184.283 1081.29C184.31 1082.29 184.31 1082.29 184.311 1082.29L184.313 1082.29L184.322 1082.29L184.36 1082.29L184.51 1082.29L185.115 1082.27C185.656 1082.26 186.474 1082.23 187.58 1082.2C189.793 1082.14 193.163 1082.04 197.789 1081.9C207.042 1081.62 221.322 1081.17 241.431 1080.5C281.488 1079.15 344.678 1076.92 437.345 1073.35C425.049 1240.13 374.76 1349.47 327.544 1417.12C303.88 1451.02 280.983 1474.47 264.012 1489.43C255.527 1496.91 248.524 1502.27 243.648 1505.76C241.21 1507.5 239.303 1508.77 238.01 1509.61C237.363 1510.03 236.869 1510.34 236.539 1510.54C236.373 1510.64 236.249 1510.72 236.167 1510.77C236.125 1510.79 236.095 1510.81 236.075 1510.82L236.053 1510.84L236.048 1510.84C236.047 1510.84 236.047 1510.84 236.079 1510.89Z" stroke="#FFDD50" stroke-width="2"/>
<path d="M824.315 1694.85V1695.85H825.315V1694.85C825.315 1695.85 825.316 1695.85 825.317 1695.85H825.322L825.342 1695.85L825.423 1695.85L825.748 1695.85C826.037 1695.85 826.472 1695.85 827.054 1695.85C828.219 1695.85 829.975 1695.85 832.34 1695.84C837.071 1695.83 844.241 1695.8 853.994 1695.75C873.501 1695.65 903.345 1695.44 944.695 1695.03C1027.39 1694.2 1156.12 1692.56 1340.21 1689.26L1341.2 1689.24V1688.26V1601.52V1600.55L1340.22 1600.52C1173.13 1595.8 1044.41 1592.74 957.457 1590.86C913.983 1589.91 880.952 1589.26 858.789 1588.85C847.708 1588.65 839.343 1588.5 833.749 1588.4C830.952 1588.35 828.848 1588.32 827.442 1588.3C826.74 1588.28 826.212 1588.28 825.86 1588.27L825.463 1588.26L825.364 1588.26L825.339 1588.26L825.333 1588.26C825.332 1588.26 825.331 1588.26 825.315 1589.26L825.331 1588.26L824.315 1588.25V1589.26V1694.85Z" stroke="#FFDD50" stroke-width="2"/>
</svg>
