<svg width="87" height="87" viewBox="0 0 87 87" fill="none" xmlns="http://www.w3.org/2000/svg">
<g filter="url(#filter0_d_955_4453)">
<mask id="path-1-outside-1_955_4453" maskUnits="userSpaceOnUse" x="17.7442" y="61.4505" width="12.0842" height="14.0891" fill="black">
<rect fill="white" x="17.7442" y="61.4505" width="12.0842" height="14.0891"/>
<path d="M22.6945 64.9564C23.3225 65.146 23.6753 65.8041 23.4857 66.4321C23.2961 67.0601 22.638 67.413 22.01 67.2234C21.382 67.0338 21.0292 66.3757 21.2188 65.7477C21.4084 65.1197 22.0664 64.7668 22.6945 64.9564ZM22.195 66.6107C22.486 66.6986 22.7852 66.5382 22.873 66.2471C22.9609 65.9561 22.8005 65.657 22.5095 65.5691C22.2184 65.4813 21.9193 65.6417 21.8315 65.9327C21.7436 66.2237 21.904 66.5228 22.195 66.6107ZM22.8954 73.591L21.4782 69.8707C24.4134 66.1272 27.713 64.3323 27.713 64.3323L28.5023 65.2057C28.5023 65.2057 25.9575 67.379 24.0535 70.364L24.9933 72.7871L22.8954 73.591Z"/>
</mask>
<path d="M22.6945 64.9564C23.3225 65.146 23.6753 65.8041 23.4857 66.4321C23.2961 67.0601 22.638 67.413 22.01 67.2234C21.382 67.0338 21.0292 66.3757 21.2188 65.7477C21.4084 65.1197 22.0664 64.7668 22.6945 64.9564ZM22.195 66.6107C22.486 66.6986 22.7852 66.5382 22.873 66.2471C22.9609 65.9561 22.8005 65.657 22.5095 65.5691C22.2184 65.4813 21.9193 65.6417 21.8315 65.9327C21.7436 66.2237 21.904 66.5228 22.195 66.6107ZM22.8954 73.591L21.4782 69.8707C24.4134 66.1272 27.713 64.3323 27.713 64.3323L28.5023 65.2057C28.5023 65.2057 25.9575 67.379 24.0535 70.364L24.9933 72.7871L22.8954 73.591Z" fill="#FFDD50"/>
<path d="M22.8954 73.591L22.4281 73.769L22.6065 74.2372L23.0743 74.0579L22.8954 73.591ZM21.4782 69.8707L21.0847 69.5621L20.9104 69.7845L21.011 70.0486L21.4782 69.8707ZM27.713 64.3323L28.084 63.9971L27.82 63.7049L27.4741 63.8931L27.713 64.3323ZM28.5023 65.2057L28.827 65.5859L29.218 65.252L28.8733 64.8705L28.5023 65.2057ZM24.0535 70.364L23.632 70.0952L23.4958 70.3087L23.5873 70.5448L24.0535 70.364ZM24.9933 72.7871L25.1722 73.254L25.641 73.0743L25.4595 72.6063L24.9933 72.7871ZM22.5499 65.4351C22.9136 65.5449 23.1168 65.924 23.007 66.2876L23.9644 66.5766C24.2338 65.6843 23.7313 64.7472 22.839 64.4778L22.5499 65.4351ZM23.007 66.2876C22.8973 66.6513 22.5182 66.8545 22.1545 66.7447L21.8655 67.702C22.7579 67.9715 23.695 67.469 23.9644 66.5766L23.007 66.2876ZM22.1545 66.7447C21.7909 66.6349 21.5876 66.2559 21.6974 65.8922L20.7401 65.6032C20.4707 66.4956 20.9732 67.4326 21.8655 67.702L22.1545 66.7447ZM21.6974 65.8922C21.8072 65.5286 22.1863 65.3253 22.5499 65.4351L22.839 64.4778C21.9466 64.2084 21.0095 64.7108 20.7401 65.6032L21.6974 65.8922ZM22.0505 67.0894C22.6059 67.257 23.184 66.947 23.3517 66.3917L22.3944 66.1026C22.3894 66.1192 22.3811 66.1265 22.3739 66.1304C22.3668 66.1342 22.3561 66.137 22.3395 66.132L22.0505 67.0894ZM23.3517 66.3917C23.5194 65.8363 23.2094 65.2581 22.654 65.0905L22.365 66.0478C22.3815 66.0528 22.3889 66.0611 22.3927 66.0682C22.3965 66.0754 22.3994 66.0861 22.3944 66.1026L23.3517 66.3917ZM22.654 65.0905C22.0986 64.9228 21.5205 65.2328 21.3528 65.7882L22.3101 66.0772C22.3151 66.0606 22.3234 66.0533 22.3306 66.0495C22.3377 66.0457 22.3484 66.0428 22.365 66.0478L22.654 65.0905ZM21.3528 65.7882C21.1851 66.3436 21.4951 66.9217 22.0505 67.0894L22.3395 66.132C22.323 66.127 22.3156 66.1187 22.3118 66.1116C22.308 66.1045 22.3051 66.0938 22.3101 66.0772L21.3528 65.7882ZM23.3626 73.4131L21.9455 69.6927L21.011 70.0486L22.4281 73.769L23.3626 73.4131ZM21.8717 70.1792C23.3078 68.3476 24.8342 66.9916 26.0012 66.094C26.5842 65.6456 27.0763 65.3125 27.4207 65.0927C27.5928 64.9828 27.7279 64.9013 27.8188 64.8478C27.8643 64.8211 27.8987 64.8014 27.9212 64.7887C27.9325 64.7824 27.9407 64.7777 27.9459 64.7749C27.9485 64.7735 27.9503 64.7725 27.9513 64.7719C27.9518 64.7716 27.9521 64.7715 27.9522 64.7714C27.9523 64.7714 27.9523 64.7714 27.9522 64.7714C27.9522 64.7714 27.9521 64.7714 27.9521 64.7714C27.9521 64.7715 27.952 64.7715 27.713 64.3323C27.4741 63.8931 27.474 63.8932 27.4738 63.8932C27.4738 63.8933 27.4736 63.8933 27.4735 63.8934C27.4733 63.8935 27.473 63.8937 27.4726 63.8939C27.4719 63.8943 27.4711 63.8948 27.47 63.8954C27.4678 63.8966 27.4648 63.8982 27.4611 63.9003C27.4536 63.9044 27.4429 63.9104 27.4293 63.9181C27.402 63.9335 27.3627 63.956 27.3122 63.9857C27.2112 64.045 27.0656 64.133 26.8826 64.2498C26.5165 64.4835 26.0002 64.8332 25.3915 65.3014C24.1749 66.2371 22.5838 67.6503 21.0847 69.5621L21.8717 70.1792ZM27.3421 64.6675L28.1313 65.5409L28.8733 64.8705L28.084 63.9971L27.3421 64.6675ZM28.5023 65.2057C28.1776 64.8255 28.1775 64.8256 28.1774 64.8256C28.1774 64.8256 28.1773 64.8257 28.1772 64.8258C28.1771 64.8259 28.1769 64.8261 28.1766 64.8263C28.1762 64.8267 28.1756 64.8272 28.1748 64.8279C28.1733 64.8292 28.1711 64.831 28.1684 64.8334C28.1629 64.8382 28.155 64.845 28.1448 64.8539C28.1244 64.8717 28.0948 64.8976 28.0568 64.9315C27.9807 64.9991 27.871 65.0983 27.7338 65.2264C27.4595 65.4823 27.0748 65.8541 26.6301 66.3204C25.7423 67.2511 24.607 68.5665 23.632 70.0952L24.4751 70.6329C25.404 69.1765 26.4932 67.9127 27.3537 67.0106C27.7832 66.5604 28.1537 66.2023 28.416 65.9575C28.5472 65.8351 28.6511 65.7412 28.7217 65.6784C28.757 65.647 28.7839 65.6233 28.8017 65.6078C28.8106 65.6 28.8172 65.5943 28.8215 65.5907C28.8236 65.5888 28.8251 65.5875 28.8261 65.5867C28.8265 65.5863 28.8268 65.5861 28.827 65.5859C28.8271 65.5859 28.8271 65.5858 28.8271 65.5858C28.8271 65.5858 28.8271 65.5858 28.8271 65.5858C28.827 65.5859 28.827 65.5859 28.5023 65.2057ZM23.5873 70.5448L24.5271 72.9679L25.4595 72.6063L24.5197 70.1832L23.5873 70.5448ZM24.8144 72.3202L22.7165 73.1242L23.0743 74.0579L25.1722 73.254L24.8144 72.3202Z" fill="#3A684E" mask="url(#path-1-outside-1_955_4453)"/>
<mask id="path-3-outside-2_955_4453" maskUnits="userSpaceOnUse" x="25.4697" y="41.6198" width="16.1606" height="15.9296" fill="black">
<rect fill="white" x="25.4697" y="41.6198" width="16.1606" height="15.9296"/>
<path d="M32.2578 48.6546C36.9589 52.945 35.3103 55.2477 35.3103 55.2477C35.3103 55.2477 34.6668 53.508 31.0432 50.4611C30.6464 51.0429 30.4414 51.3291 30.4414 51.3291L29.1145 50.3791L29.7851 49.4424C29.339 49.1034 28.854 48.7364 28.3206 48.3546L29.6245 46.5332C30.1579 46.9151 30.656 47.2913 31.1057 47.6527C31.7987 46.7123 32.6779 45.5117 33.7507 44.0956C40.0604 48.6128 38.6763 50.5736 38.6763 50.5736C38.6763 50.5736 36.2009 48.644 33.5563 46.7309C33.0664 47.4427 32.6453 48.0858 32.2578 48.6546Z"/>
</mask>
<path d="M32.2578 48.6546C36.9589 52.945 35.3103 55.2477 35.3103 55.2477C35.3103 55.2477 34.6668 53.508 31.0432 50.4611C30.6464 51.0429 30.4414 51.3291 30.4414 51.3291L29.1145 50.3791L29.7851 49.4424C29.339 49.1034 28.854 48.7364 28.3206 48.3546L29.6245 46.5332C30.1579 46.9151 30.656 47.2913 31.1057 47.6527C31.7987 46.7123 32.6779 45.5117 33.7507 44.0956C40.0604 48.6128 38.6763 50.5736 38.6763 50.5736C38.6763 50.5736 36.2009 48.644 33.5563 46.7309C33.0664 47.4427 32.6453 48.0858 32.2578 48.6546Z" fill="#FFDD50"/>
<path d="M32.2578 48.6546L31.8446 48.373L31.6004 48.7315L31.9208 49.0239L32.2578 48.6546ZM35.3103 55.2477L34.8413 55.4212L35.1683 56.305L35.7168 55.5388L35.3103 55.2477ZM31.0432 50.4611L31.3649 50.0784L30.9417 49.7226L30.6301 50.1794L31.0432 50.4611ZM30.4414 51.3291L30.1504 51.7356L30.5569 52.0267L30.848 51.6201L30.4414 51.3291ZM29.1145 50.3791L28.7079 50.088L28.4169 50.4945L28.8234 50.7856L29.1145 50.3791ZM29.7851 49.4424L30.1916 49.7334L30.4745 49.3383L30.0876 49.0443L29.7851 49.4424ZM28.3206 48.3546L27.914 48.0635L27.623 48.47L28.0295 48.7611L28.3206 48.3546ZM29.6245 46.5332L29.9156 46.1267L29.5091 45.8356L29.218 46.2421L29.6245 46.5332ZM31.1057 47.6527L30.7926 48.0424L31.199 48.369L31.5083 47.9493L31.1057 47.6527ZM33.7507 44.0956L34.0418 43.689L33.6461 43.4057L33.3522 43.7936L33.7507 44.0956ZM38.6763 50.5736L38.3689 50.9679L38.7824 51.2903L39.0848 50.8619L38.6763 50.5736ZM33.5563 46.7309L33.8493 46.3258L33.4346 46.0258L33.1444 46.4474L33.5563 46.7309ZM31.9208 49.0239C34.2214 51.1236 34.9013 52.6764 35.0531 53.638C35.1289 54.1187 35.0757 54.467 35.0138 54.6831C34.9825 54.7922 34.9484 54.8698 34.9253 54.9157C34.9138 54.9386 34.905 54.9536 34.9008 54.9604C34.8987 54.9639 34.8978 54.9653 34.8982 54.9647C34.8984 54.9644 34.8989 54.9635 34.8998 54.9622C34.9003 54.9615 34.9009 54.9608 34.9015 54.9598C34.9018 54.9594 34.9022 54.9589 34.9025 54.9583C34.9027 54.9581 34.903 54.9577 34.9031 54.9575C34.9034 54.9571 34.9037 54.9567 35.3103 55.2477C35.7168 55.5388 35.7172 55.5383 35.7175 55.5379C35.7176 55.5377 35.718 55.5372 35.7182 55.5369C35.7187 55.5362 35.7192 55.5355 35.7197 55.5348C35.7207 55.5333 35.7219 55.5317 35.7231 55.5299C35.7256 55.5263 35.7284 55.5221 35.7316 55.5173C35.738 55.5077 35.7457 55.4957 35.7545 55.4812C35.7722 55.4523 35.7942 55.4135 35.8186 55.3651C35.8673 55.2683 35.9252 55.1325 35.9751 54.9587C36.0753 54.609 36.1405 54.1134 36.0408 53.4821C35.8416 52.2198 34.9953 50.476 32.5949 48.2853L31.9208 49.0239ZM35.3103 55.2477C35.7792 55.0743 35.7791 55.074 35.779 55.0737C35.779 55.0736 35.7789 55.0733 35.7788 55.073C35.7786 55.0726 35.7784 55.0721 35.7783 55.0716C35.7779 55.0707 35.7775 55.0696 35.777 55.0684C35.7761 55.066 35.775 55.0632 35.7738 55.06C35.7713 55.0536 35.768 55.0455 35.764 55.0358C35.7559 55.0163 35.7446 54.9902 35.7296 54.9577C35.6996 54.8926 35.6547 54.8016 35.5903 54.6856C35.4615 54.4536 35.2551 54.1216 34.9351 53.6964C34.2953 52.846 33.2012 51.6224 31.3649 50.0784L30.7214 50.8438C32.5087 52.3467 33.5482 53.5164 34.136 54.2976C34.4299 54.6882 34.6108 54.9815 34.7159 55.1709C34.7685 55.2656 34.8021 55.3344 34.8215 55.3763C34.8312 55.3973 34.8373 55.4116 34.8404 55.4191C34.8419 55.4229 34.8428 55.4249 34.8429 55.4253C34.843 55.4255 34.8429 55.4252 34.8426 55.4245C34.8425 55.4242 34.8423 55.4237 34.8421 55.4232C34.842 55.4229 34.8419 55.4226 34.8417 55.4223C34.8417 55.4221 34.8416 55.4218 34.8416 55.4217C34.8414 55.4215 34.8413 55.4212 35.3103 55.2477ZM30.6301 50.1794C30.4328 50.4687 30.2834 50.6841 30.1837 50.8268C30.1338 50.8982 30.0963 50.9514 30.0715 50.9865C30.059 51.0041 30.0498 51.0172 30.0436 51.0257C30.0406 51.03 30.0383 51.0332 30.0369 51.0352C30.0361 51.0363 30.0356 51.037 30.0353 51.0375C30.0351 51.0377 30.035 51.0379 30.0349 51.038C30.0349 51.038 30.0349 51.038 30.0349 51.038C30.0349 51.038 30.0349 51.038 30.0349 51.038C30.0349 51.038 30.0349 51.038 30.0349 51.038C30.0349 51.038 30.0349 51.038 30.4414 51.3291C30.848 51.6201 30.848 51.6201 30.848 51.6201C30.848 51.6201 30.848 51.6201 30.848 51.6201C30.848 51.6201 30.8481 51.62 30.8481 51.62C30.8481 51.62 30.8482 51.6199 30.8482 51.6198C30.8484 51.6196 30.8486 51.6193 30.8488 51.619C30.8493 51.6184 30.8499 51.6174 30.8508 51.6162C30.8525 51.6138 30.8551 51.6102 30.8584 51.6055C30.8651 51.5962 30.8749 51.5824 30.8879 51.564C30.9138 51.5273 30.9524 51.4726 31.0033 51.3997C31.1052 51.2539 31.2567 51.0353 31.4562 50.7429L30.6301 50.1794ZM30.7325 50.9225L29.4055 49.9725L28.8234 50.7856L30.1504 51.7356L30.7325 50.9225ZM29.521 50.6701L30.1916 49.7334L29.3785 49.1513L28.7079 50.088L29.521 50.6701ZM30.0876 49.0443C29.6413 48.705 29.1513 48.3344 28.6117 47.948L28.0295 48.7611C28.5567 49.1385 29.0368 49.5017 29.4825 49.8404L30.0876 49.0443ZM28.7271 48.6456L30.0311 46.8243L29.218 46.2421L27.914 48.0635L28.7271 48.6456ZM29.3335 46.9398C29.8605 47.317 30.351 47.6877 30.7926 48.0424L31.4189 47.2629C30.961 46.895 30.4554 46.5131 29.9156 46.1267L29.3335 46.9398ZM31.5083 47.9493C32.202 47.0077 33.0789 45.8103 34.1493 44.3975L33.3522 43.7936C32.2768 45.213 31.3953 46.4168 30.7032 47.3561L31.5083 47.9493ZM33.4597 44.5021C36.5856 46.74 37.7288 48.2932 38.1186 49.222C38.3103 49.6787 38.3171 49.9775 38.2977 50.1358C38.2878 50.2167 38.2702 50.2678 38.2606 50.2913C38.2558 50.3032 38.2527 50.3086 38.2533 50.3075C38.2536 50.307 38.2548 50.3048 38.2572 50.3011C38.2583 50.2993 38.2598 50.297 38.2616 50.2944C38.2624 50.293 38.2634 50.2916 38.2645 50.2901C38.265 50.2893 38.2655 50.2885 38.2661 50.2877C38.2664 50.2873 38.2668 50.2867 38.2669 50.2865C38.2674 50.2859 38.2678 50.2852 38.6763 50.5736C39.0848 50.8619 39.0853 50.8613 39.0857 50.8606C39.0859 50.8604 39.0864 50.8597 39.0867 50.8592C39.0873 50.8583 39.088 50.8573 39.0887 50.8563C39.0901 50.8543 39.0915 50.8522 39.093 50.8499C39.0961 50.8453 39.0994 50.8402 39.103 50.8345C39.1102 50.8231 39.1184 50.8094 39.1273 50.7934C39.1451 50.7614 39.1656 50.7202 39.1863 50.6697C39.2277 50.5683 39.269 50.431 39.2903 50.2574C39.3332 49.907 39.2917 49.4332 39.0407 48.8351C38.5451 47.6542 37.2255 45.9683 34.0418 43.689L33.4597 44.5021ZM38.6763 50.5736C38.9837 50.1792 38.9837 50.1792 38.9837 50.1792C38.9837 50.1792 38.9836 50.1792 38.9836 50.1791C38.9835 50.1791 38.9834 50.179 38.9832 50.1788C38.9829 50.1786 38.9824 50.1782 38.9818 50.1777C38.9806 50.1768 38.9787 50.1753 38.9763 50.1735C38.9715 50.1697 38.9643 50.1641 38.9548 50.1567C38.9359 50.142 38.9078 50.1202 38.8712 50.0918C38.798 50.0351 38.6906 49.9519 38.5535 49.8462C38.2794 49.6348 37.8864 49.3331 37.4106 48.9716C36.4593 48.2486 35.1759 47.2854 33.8493 46.3258L33.2632 47.136C34.5813 48.0895 35.8579 49.0476 36.8055 49.7677C37.2792 50.1277 37.6703 50.428 37.9429 50.6382C38.0792 50.7432 38.1859 50.8258 38.2584 50.882C38.2946 50.9101 38.3223 50.9317 38.341 50.9462C38.3503 50.9534 38.3573 50.9589 38.362 50.9625C38.3643 50.9643 38.3661 50.9657 38.3672 50.9666C38.3678 50.9671 38.3682 50.9674 38.3685 50.9676C38.3687 50.9677 38.3688 50.9678 38.3688 50.9679C38.3689 50.9679 38.3689 50.9679 38.3689 50.9679C38.3689 50.9679 38.3689 50.9679 38.6763 50.5736ZM33.1444 46.4474C32.6585 47.1535 32.2205 47.8214 31.8446 48.373L32.671 48.9361C33.0701 48.3503 33.4742 47.732 33.9682 47.0144L33.1444 46.4474Z" fill="#3A684E" mask="url(#path-3-outside-2_955_4453)"/>
<mask id="path-5-outside-3_955_4453" maskUnits="userSpaceOnUse" x="41.2689" y="24.4257" width="15.4676" height="16.6225" fill="black">
<rect fill="white" x="41.2689" y="24.4257" width="15.4676" height="16.6225"/>
<path d="M48.1459 26.0499C49.5987 26.2101 49.4606 27.529 49.4606 27.529C49.4606 27.529 49.066 27.2802 48.1787 27.1677C48.7836 27.6004 48.7026 28.3668 48.7026 28.3668C48.7026 28.3668 48.2541 28.0976 47.2645 27.9796L47.3879 26.8877C47.6465 26.919 47.866 26.9783 48.0335 27.0748L48.1459 26.0499ZM49.914 39.1291C49.914 39.1291 51.3965 35.7851 48.2736 30.6811C45.6552 32.7131 44.6981 33.4377 44.6981 33.4377L43.7387 32.0977C43.7387 32.0977 45.1178 31.1104 49.333 28.2303C54.5395 35.5027 49.914 39.1291 49.914 39.1291Z"/>
</mask>
<path d="M48.1459 26.0499C49.5987 26.2101 49.4606 27.529 49.4606 27.529C49.4606 27.529 49.066 27.2802 48.1787 27.1677C48.7836 27.6004 48.7026 28.3668 48.7026 28.3668C48.7026 28.3668 48.2541 28.0976 47.2645 27.9796L47.3879 26.8877C47.6465 26.919 47.866 26.9783 48.0335 27.0748L48.1459 26.0499ZM49.914 39.1291C49.914 39.1291 51.3965 35.7851 48.2736 30.6811C45.6552 32.7131 44.6981 33.4377 44.6981 33.4377L43.7387 32.0977C43.7387 32.0977 45.1178 31.1104 49.333 28.2303C54.5395 35.5027 49.914 39.1291 49.914 39.1291Z" fill="#FFDD50"/>
<path d="M48.1459 26.0499L48.2007 25.5529L47.7033 25.498L47.6488 25.9954L48.1459 26.0499ZM49.4606 27.529L49.1939 27.9519L49.8742 28.3809L49.9579 27.581L49.4606 27.529ZM48.1787 27.1677L48.2416 26.6717L47.8878 27.5744L48.1787 27.1677ZM48.7026 28.3668L48.4453 28.7955L49.1175 29.1989L49.1999 28.4194L48.7026 28.3668ZM47.2645 27.9796L46.7676 27.9235L46.7118 28.4173L47.2053 28.4761L47.2645 27.9796ZM47.3879 26.8877L47.4481 26.3913L46.9477 26.3307L46.8911 26.8315L47.3879 26.8877ZM48.0335 27.0748L47.7838 27.5081L48.4471 27.8903L48.5305 27.1293L48.0335 27.0748ZM49.914 39.1291L49.4569 38.9264L50.2225 39.5226L49.914 39.1291ZM48.2736 30.6811L48.7001 30.4201L48.4085 29.9435L47.9671 30.286L48.2736 30.6811ZM44.6981 33.4377L44.2915 33.7287L44.5904 34.1463L44.9999 33.8363L44.6981 33.4377ZM43.7387 32.0977L43.4477 31.6911L43.0411 31.9822L43.3322 32.3888L43.7387 32.0977ZM49.333 28.2303L49.7396 27.9393L49.4548 27.5415L49.051 27.8175L49.333 28.2303ZM48.091 26.5469C48.3766 26.5784 48.5512 26.6623 48.6607 26.7459C48.7711 26.8303 48.8412 26.9342 48.8871 27.0434C48.9343 27.1554 48.954 27.2696 48.961 27.359C48.9643 27.4026 48.9644 27.4374 48.9639 27.4591C48.9636 27.4699 48.9632 27.4772 48.9629 27.4804C48.9628 27.482 48.9628 27.4825 48.9628 27.482C48.9628 27.4817 48.9629 27.4812 48.963 27.4803C48.963 27.4799 48.9631 27.4794 48.9631 27.4788C48.9631 27.4786 48.9632 27.4783 48.9632 27.4779C48.9632 27.4778 48.9633 27.4775 48.9633 27.4775C48.9633 27.4772 48.9633 27.4769 49.4606 27.529C49.9579 27.581 49.9579 27.5808 49.9579 27.5805C49.9579 27.5804 49.958 27.5801 49.958 27.5799C49.958 27.5795 49.9581 27.5791 49.9581 27.5786C49.9582 27.5778 49.9583 27.5768 49.9584 27.5757C49.9586 27.5736 49.9588 27.5712 49.9591 27.5684C49.9596 27.5629 49.9601 27.556 49.9607 27.5479C49.9617 27.5317 49.9629 27.5105 49.9635 27.4849C49.9648 27.4338 49.9644 27.3644 49.958 27.2819C49.9454 27.119 49.9089 26.8934 49.8089 26.6557C49.7078 26.4151 49.54 26.1593 49.2677 25.9513C48.9945 25.7426 48.6415 25.6015 48.2007 25.5529L48.091 26.5469ZM49.4606 27.529C49.7273 27.106 49.7271 27.1059 49.7269 27.1058C49.7269 27.1058 49.7267 27.1057 49.7266 27.1056C49.7264 27.1055 49.7261 27.1053 49.7259 27.1052C49.7254 27.1049 49.7249 27.1045 49.7243 27.1042C49.7232 27.1035 49.722 27.1028 49.7207 27.102C49.7181 27.1004 49.7151 27.0986 49.7118 27.0966C49.705 27.0925 49.6965 27.0876 49.6865 27.082C49.6664 27.0707 49.6397 27.0564 49.6063 27.0399C49.5393 27.0069 49.4456 26.9651 49.3234 26.9207C49.0788 26.8317 48.722 26.7326 48.2416 26.6717L48.1158 27.6637C48.5227 27.7153 48.8069 27.7969 48.9814 27.8604C49.0688 27.8922 49.1291 27.9196 49.1639 27.9368C49.1813 27.9454 49.1924 27.9514 49.1973 27.9542C49.1998 27.9556 49.2007 27.9561 49.2001 27.9558C49.1999 27.9556 49.1992 27.9552 49.1982 27.9546C49.1976 27.9542 49.197 27.9539 49.1963 27.9534C49.196 27.9532 49.1956 27.953 49.1952 27.9527C49.195 27.9526 49.1948 27.9525 49.1946 27.9523C49.1945 27.9523 49.1943 27.9522 49.1942 27.9521C49.1941 27.952 49.1939 27.9519 49.4606 27.529ZM47.8878 27.5744C48.0597 27.6973 48.1417 27.8706 48.1798 28.0394C48.1987 28.1233 48.2047 28.1987 48.206 28.2521C48.2066 28.2784 48.206 28.2981 48.2055 28.3093C48.2052 28.3149 48.205 28.3183 48.2049 28.3192C48.2049 28.3197 48.2049 28.3195 48.205 28.3187C48.205 28.3183 48.2051 28.3177 48.2051 28.317C48.2052 28.3166 48.2052 28.3162 48.2053 28.3157C48.2053 28.3155 48.2053 28.3153 48.2053 28.315C48.2053 28.3149 48.2054 28.3147 48.2054 28.3146C48.2054 28.3144 48.2054 28.3142 48.7026 28.3668C49.1999 28.4194 49.1999 28.4191 49.1999 28.4189C49.1999 28.4189 49.1999 28.4186 49.2 28.4185C49.2 28.4182 49.2 28.4179 49.2001 28.4176C49.2001 28.4169 49.2002 28.4162 49.2003 28.4155C49.2004 28.414 49.2006 28.4123 49.2007 28.4105C49.2011 28.4067 49.2015 28.4022 49.2019 28.3969C49.2027 28.3864 49.2036 28.3729 49.2044 28.3567C49.2059 28.3243 49.2069 28.2808 49.2057 28.2285C49.2033 28.1246 49.1918 27.9814 49.1553 27.8196C49.0826 27.497 48.9026 27.0708 48.4696 26.761L47.8878 27.5744ZM48.7026 28.3668C48.9599 27.9381 48.9598 27.938 48.9596 27.9379C48.9596 27.9379 48.9594 27.9377 48.9593 27.9377C48.959 27.9375 48.9588 27.9374 48.9586 27.9373C48.9581 27.937 48.9575 27.9366 48.957 27.9363C48.9559 27.9357 48.9547 27.935 48.9534 27.9342C48.9507 27.9326 48.9476 27.9309 48.9441 27.9288C48.9369 27.9248 48.928 27.9198 48.9172 27.9141C48.8956 27.9025 48.8666 27.8877 48.8301 27.8705C48.757 27.8361 48.6538 27.7921 48.519 27.7452C48.2491 27.6513 47.8544 27.5464 47.3237 27.4831L47.2053 28.4761C47.6642 28.5308 47.9885 28.6195 48.1904 28.6897C48.2914 28.7248 48.3622 28.7555 48.4041 28.7752C48.4251 28.7851 48.4389 28.7923 48.4457 28.7959C48.4491 28.7977 48.4507 28.7987 48.4507 28.7986C48.4506 28.7986 48.4502 28.7984 48.4493 28.7978C48.4488 28.7976 48.4483 28.7973 48.4476 28.7969C48.4473 28.7967 48.4469 28.7965 48.4466 28.7962C48.4464 28.7961 48.4462 28.796 48.446 28.7959C48.4459 28.7958 48.4457 28.7957 48.4457 28.7957C48.4455 28.7956 48.4453 28.7955 48.7026 28.3668ZM47.7613 28.0358L47.8847 26.9439L46.8911 26.8315L46.7676 27.9235L47.7613 28.0358ZM47.3277 27.3841C47.5526 27.4113 47.6979 27.4585 47.7838 27.5081L48.2832 26.6416C48.0342 26.4981 47.7403 26.4267 47.4481 26.3913L47.3277 27.3841ZM48.5305 27.1293L48.6429 26.1044L47.6488 25.9954L47.5365 27.0204L48.5305 27.1293ZM49.914 39.1291C50.3711 39.3317 50.3712 39.3314 50.3714 39.3311C50.3714 39.331 50.3716 39.3306 50.3717 39.3304C50.3719 39.3299 50.3722 39.3293 50.3724 39.3287C50.373 39.3275 50.3736 39.3261 50.3743 39.3244C50.3757 39.3212 50.3774 39.3171 50.3795 39.3122C50.3836 39.3023 50.389 39.2892 50.3954 39.2729C50.4082 39.2402 50.4253 39.1945 50.4451 39.1362C50.4846 39.0197 50.5351 38.8528 50.5842 38.6386C50.6825 38.2102 50.7753 37.5928 50.7648 36.8124C50.7439 35.2472 50.3077 33.0476 48.7001 30.4201L47.8471 30.942C49.3624 33.4186 49.7464 35.443 49.7649 36.8258C49.7742 37.5194 49.6916 38.057 49.6095 38.4151C49.5684 38.5942 49.5275 38.7284 49.4982 38.8147C49.4835 38.8578 49.4718 38.8889 49.4644 38.9077C49.4607 38.9171 49.4582 38.9234 49.4568 38.9265C49.4562 38.9281 49.4559 38.9289 49.4559 38.9289C49.4559 38.9289 49.4559 38.9287 49.4561 38.9282C49.4562 38.928 49.4563 38.9278 49.4565 38.9275C49.4565 38.9273 49.4566 38.9271 49.4567 38.927C49.4568 38.9267 49.4569 38.9264 49.914 39.1291ZM47.9671 30.286C46.6584 31.3016 45.7652 31.9903 45.1994 32.4249C44.9165 32.6421 44.7154 32.7959 44.5852 32.8952C44.5201 32.9449 44.4728 32.9809 44.4417 33.0045C44.4262 33.0163 44.4148 33.025 44.4073 33.0307C44.4035 33.0336 44.4007 33.0357 44.3989 33.0371C44.398 33.0377 44.3973 33.0383 44.3969 33.0386C44.3967 33.0387 44.3965 33.0389 44.3964 33.0389C44.3963 33.039 44.3963 33.039 44.3963 33.039C44.3963 33.039 44.3963 33.039 44.3963 33.039C44.3963 33.039 44.3963 33.039 44.6981 33.4377C44.9999 33.8363 44.9999 33.8363 44.9999 33.8363C44.9999 33.8363 44.9999 33.8363 44.9999 33.8363C45 33.8363 45 33.8362 45.0001 33.8362C45.0002 33.8361 45.0004 33.8359 45.0007 33.8357C45.0012 33.8353 45.0019 33.8348 45.0029 33.834C45.0049 33.8326 45.0078 33.8303 45.0117 33.8274C45.0194 33.8215 45.0311 33.8126 45.0469 33.8006C45.0784 33.7767 45.1263 33.7402 45.1918 33.6902C45.3229 33.5902 45.5248 33.4358 45.8085 33.2179C46.3758 32.7822 47.2704 32.0925 48.5802 31.0761L47.9671 30.286ZM45.1046 33.1466L44.1453 31.8066L43.3322 32.3888L44.2915 33.7287L45.1046 33.1466ZM43.7387 32.0977C44.0298 32.5042 44.0298 32.5043 44.0298 32.5043C44.0298 32.5042 44.0298 32.5042 44.0298 32.5042C44.0298 32.5042 44.0299 32.5042 44.0299 32.5041C44.0301 32.504 44.0303 32.5039 44.0306 32.5037C44.0312 32.5032 44.0322 32.5026 44.0335 32.5016C44.0361 32.4998 44.0401 32.4969 44.0455 32.493C44.0564 32.4853 44.073 32.4735 44.0957 32.4573C44.1411 32.4251 44.211 32.3756 44.3081 32.3071C44.5024 32.1702 44.8057 31.9573 45.2408 31.6544C46.1111 31.0485 47.5084 30.0825 49.6151 28.6432L49.051 27.8175C46.9423 29.2582 45.5425 30.2259 44.6695 30.8337C44.2329 31.1376 43.928 31.3516 43.732 31.4898C43.634 31.5588 43.5632 31.609 43.5167 31.642C43.4935 31.6585 43.4764 31.6706 43.465 31.6788C43.4593 31.6828 43.455 31.6859 43.4522 31.6879C43.4507 31.689 43.4496 31.6897 43.4489 31.6903C43.4485 31.6905 43.4482 31.6907 43.448 31.6909C43.4479 31.691 43.4478 31.691 43.4478 31.6911C43.4478 31.6911 43.4477 31.6911 43.4477 31.6911C43.4477 31.6911 43.4477 31.6911 43.7387 32.0977ZM48.9265 28.5214C51.4599 32.0601 51.5515 34.6307 51.0943 36.2727C50.8623 37.1058 50.4814 37.7289 50.1605 38.1421C50.0001 38.3486 49.8555 38.5016 49.7536 38.601C49.7027 38.6506 49.6626 38.6867 49.6367 38.7092C49.6238 38.7204 49.6144 38.7282 49.6091 38.7326C49.6064 38.7349 49.6047 38.7362 49.6041 38.7367C49.6038 38.7369 49.6038 38.737 49.604 38.7368C49.6041 38.7367 49.6043 38.7366 49.6046 38.7364C49.6047 38.7363 49.6049 38.7361 49.605 38.736C49.6052 38.7358 49.6055 38.7356 49.914 39.1291C50.2225 39.5226 50.2228 39.5223 50.2231 39.5221C50.2233 39.522 50.2236 39.5217 50.2239 39.5215C50.2244 39.5211 50.225 39.5206 50.2257 39.5201C50.227 39.519 50.2287 39.5177 50.2306 39.5162C50.2344 39.5131 50.2392 39.5092 50.2452 39.5043C50.257 39.4945 50.273 39.4811 50.2927 39.464C50.332 39.4298 50.3862 39.3809 50.4516 39.3171C50.5823 39.1898 50.7584 39.0027 50.9503 38.7555C51.334 38.2615 51.784 37.5235 52.0576 36.541C52.6115 34.5517 52.4126 31.673 49.7396 27.9393L48.9265 28.5214Z" fill="#3A684E" mask="url(#path-5-outside-3_955_4453)"/>
<mask id="path-7-outside-4_955_4453" maskUnits="userSpaceOnUse" x="63.564" y="21.8623" width="10.4403" height="5.76224" fill="black">
<rect fill="white" x="63.564" y="21.8623" width="10.4403" height="5.76224"/>
<path d="M64.9991 26.8765L64.4811 25.1609C64.4811 25.1609 67.344 24.3468 72.6593 22.9091L73.0848 24.3183C67.3119 26.1782 64.9991 26.8765 64.9991 26.8765Z"/>
</mask>
<path d="M64.9991 26.8765L64.4811 25.1609C64.4811 25.1609 67.344 24.3468 72.6593 22.9091L73.0848 24.3183C67.3119 26.1782 64.9991 26.8765 64.9991 26.8765Z" fill="#FFDD50"/>
<path d="M64.9991 26.8765L64.5204 27.021L64.6649 27.4996L65.1436 27.3551L64.9991 26.8765ZM64.4811 25.1609L64.3443 24.68L63.8556 24.819L64.0025 25.3055L64.4811 25.1609ZM72.6593 22.9091L73.138 22.7646L72.9976 22.2997L72.5288 22.4265L72.6593 22.9091ZM73.0848 24.3183L73.2381 24.7942L73.7053 24.6437L73.5634 24.1738L73.0848 24.3183ZM65.4777 26.732L64.9598 25.0164L64.0025 25.3055L64.5204 27.021L65.4777 26.732ZM64.4811 25.1609C64.6179 25.6419 64.6179 25.6419 64.6179 25.6419C64.6179 25.6419 64.618 25.6419 64.618 25.6418C64.6181 25.6418 64.6182 25.6418 64.6184 25.6417C64.6187 25.6416 64.6192 25.6415 64.6199 25.6413C64.6213 25.6409 64.6233 25.6403 64.6261 25.6395C64.6316 25.638 64.6399 25.6356 64.651 25.6325C64.6731 25.6262 64.7064 25.6168 64.7506 25.6043C64.839 25.5793 64.9713 25.5419 65.1468 25.4926C65.4978 25.394 66.0212 25.2474 66.7108 25.0559C68.0898 24.6729 70.1333 24.1103 72.7899 23.3918L72.5288 22.4265C69.87 23.1456 67.8244 23.7088 66.4432 24.0924C65.7526 24.2841 65.2281 24.431 64.8762 24.5299C64.7002 24.5794 64.5674 24.6169 64.4785 24.642C64.434 24.6546 64.4005 24.6641 64.3782 24.6704C64.367 24.6736 64.3585 24.676 64.3529 24.6776C64.3501 24.6784 64.348 24.679 64.3465 24.6794C64.3458 24.6796 64.3453 24.6798 64.3449 24.6799C64.3447 24.6799 64.3446 24.6799 64.3445 24.68C64.3445 24.68 64.3444 24.68 64.3444 24.68C64.3444 24.68 64.3443 24.68 64.4811 25.1609ZM72.1807 23.0536L72.6061 24.4628L73.5634 24.1738L73.138 22.7646L72.1807 23.0536ZM72.9314 23.8424C70.0462 24.772 68.0261 25.4111 66.7277 25.8177C66.0785 26.021 65.6097 26.1662 65.3035 26.2604C65.1504 26.3076 65.0379 26.342 64.9639 26.3646C64.9268 26.3759 64.8994 26.3842 64.8812 26.3897C64.8722 26.3925 64.8654 26.3945 64.861 26.3958C64.8588 26.3965 64.8571 26.397 64.8561 26.3973C64.8555 26.3975 64.8551 26.3976 64.8549 26.3977C64.8548 26.3977 64.8547 26.3978 64.8546 26.3978C64.8546 26.3978 64.8546 26.3978 64.8545 26.3978C64.8545 26.3978 64.8545 26.3978 64.9991 26.8765C65.1436 27.3551 65.1436 27.3551 65.1436 27.3551C65.1436 27.3551 65.1437 27.3551 65.1437 27.3551C65.1438 27.3551 65.1439 27.355 65.1441 27.355C65.1444 27.3549 65.1448 27.3547 65.1454 27.3546C65.1466 27.3542 65.1484 27.3537 65.1507 27.353C65.1554 27.3515 65.1624 27.3494 65.1716 27.3466C65.1902 27.341 65.2181 27.3325 65.2556 27.3211C65.3305 27.2982 65.4438 27.2636 65.5978 27.2162C65.9056 27.1214 66.3759 26.9757 67.0265 26.772C68.3278 26.3645 70.3505 25.7245 73.2381 24.7942L72.9314 23.8424Z" fill="#3A684E" mask="url(#path-7-outside-4_955_4453)"/>
</g>
<defs>
<filter id="filter0_d_955_4453" x="18.6887" y="22.71" width="54.4285" height="52.2319" filterUnits="userSpaceOnUse" color-interpolation-filters="sRGB">
<feFlood flood-opacity="0" result="BackgroundImageFix"/>
<feColorMatrix in="SourceAlpha" type="matrix" values="0 0 0 0 0 0 0 0 0 0 0 0 0 0 0 0 0 0 127 0" result="hardAlpha"/>
<feOffset dx="-0.5" dy="0.5"/>
<feComposite in2="hardAlpha" operator="out"/>
<feColorMatrix type="matrix" values="0 0 0 0 0.227451 0 0 0 0 0.407843 0 0 0 0 0.305882 0 0 0 1 0"/>
<feBlend mode="normal" in2="BackgroundImageFix" result="effect1_dropShadow_955_4453"/>
<feBlend mode="normal" in="SourceGraphic" in2="effect1_dropShadow_955_4453" result="shape"/>
</filter>
</defs>
</svg>
